<?xml version="1.0" encoding="utf-8"?>
<!-- Generator: Adobe Illustrator 16.0.0, SVG Export Plug-In . SVG Version: 6.00 Build 0)  -->
<!DOCTYPE svg PUBLIC "-//W3C//DTD SVG 1.1//EN" "http://www.w3.org/Graphics/SVG/1.1/DTD/svg11.dtd">
<svg version="1.1" id="Layer_1" xmlns="http://www.w3.org/2000/svg" xmlns:xlink="http://www.w3.org/1999/xlink" x="0px" y="0px"
	 width="56px" height="56px" viewBox="0 0 56 56" enable-background="new 0 0 56 56" xml:space="preserve">
<path fill="#C27DAE" d="M14,21v-7c0-7.72,6.28-14,14-14s14,6.28,14,14v7c0,7.72-6.28,14-14,14S14,28.72,14,21z M54.065,45.869
	C53.464,45.568,39.197,38.5,28,38.5S2.536,45.568,1.935,45.869C0.749,46.462,0,47.674,0,49v3.5C0,54.433,1.567,56,3.5,56h49
	c1.933,0,3.5-1.567,3.5-3.5V49C56,47.674,55.251,46.462,54.065,45.869z"/>
</svg>
