<?xml version="1.0" encoding="utf-8"?>
<!-- Generator: Adobe Illustrator 16.0.0, SVG Export Plug-In . SVG Version: 6.00 Build 0)  -->
<!DOCTYPE svg PUBLIC "-//W3C//DTD SVG 1.1//EN" "http://www.w3.org/Graphics/SVG/1.1/DTD/svg11.dtd">
<svg version="1.1" id="Layer_1" xmlns="http://www.w3.org/2000/svg" xmlns:xlink="http://www.w3.org/1999/xlink" x="0px" y="0px"
	 width="40.012px" height="18.879px" viewBox="0 0 40.012 18.879" enable-background="new 0 0 40.012 18.879" xml:space="preserve">
<path fill="#9B9B9B" d="M38.944,13.106c0.316,0.144,0.632,0.288,0.948,0.432c-0.227,0.264-0.453,0.527-0.679,0.791l0,0
	c-1.372,1.567-4.314,3.433-6.219,4.269c-0.219,0.094-0.438,0.188-0.658,0.282c-0.108-0.211-0.216-0.422-0.324-0.633l0,0
	c-0.783-1.52-1.518-3.154-2.198-4.855l0,0c-8.329-0.414-7.862-0.254-11.788-1.308l0,0c-4.321-1.162-7.387-1.908-9.982-3.261
	C6.742,8.145,5.556,7.317,4.308,6.215c-0.625-0.551-1.269-1.17-1.964-1.873C1.995,3.991,1.634,3.619,1.254,3.224
	C0.874,2.83,0.475,2.413,0.051,1.971C-0.141,1.211,0.218,0.483,0.951,0C1.61,0.736,1.764,1.608,1.764,1.608
	c4.574,4.859,10.026,7.194,16.66,8.963l0,0c7.862,1.385,7.376,1.303,10.789,1.266l0,0c-0.168-0.45-0.33-0.901-0.491-1.355l0,0
	c-0.064-0.026-0.126-0.047-0.187-0.073c0.022-0.092,0.044-0.185,0.067-0.277l0,0c-0.15-0.425-0.296-0.863-0.437-1.291
	c0.476-0.166,0.953-0.331,1.43-0.497l0,0c0.076,0.234,0.155,0.471,0.234,0.705l0,0c2.564,0.455,4.98,1.271,7.522,2.072
	c0.885,0.278,1.772,0.556,2.662,0.834c-0.776,0.192-1.55,0.385-2.322,0.577l0,0C38.112,12.722,38.528,12.911,38.944,13.106
	L38.944,13.106L38.944,13.106z M37.266,14.055c-0.748-0.341-1.517-0.678-2.282-1.009l0,0c-1.055,0.138-2.245,0.234-3.535,0.293l0,0
	c0.508,1.216,1.041,2.396,1.603,3.513l0,0C34.37,16.187,36.137,15.04,37.266,14.055L37.266,14.055L37.266,14.055z M31.44,11.556
	c-0.274-0.11-0.554-0.223-0.831-0.335l0,0c0.077,0.196,0.148,0.392,0.223,0.587l0,0c0.374-0.018,0.743-0.033,1.098-0.053l0,0
	C31.765,11.691,31.604,11.623,31.44,11.556L31.44,11.556z"/>
</svg>
