<?xml version="1.0" encoding="utf-8"?>
<!-- Generator: Adobe Illustrator 16.0.0, SVG Export Plug-In . SVG Version: 6.00 Build 0)  -->
<!DOCTYPE svg PUBLIC "-//W3C//DTD SVG 1.1//EN" "http://www.w3.org/Graphics/SVG/1.1/DTD/svg11.dtd">
<svg version="1.1" id="Layer_1" xmlns="http://www.w3.org/2000/svg" xmlns:xlink="http://www.w3.org/1999/xlink" x="0px" y="0px"
	 width="58px" height="51.969px" viewBox="0 0 58 51.969" enable-background="new 0 0 58 51.969" xml:space="preserve">
<path fill="#FFFFFF" d="M54.375,0H3.625C1.623,0,0,1.631,0,3.643v36.709c0,2.012,1.623,3.643,3.625,3.643h15.947l-2.955,5.142
	c-0.202,0.305-0.305,0.657-0.305,1.011c0,0.294,0.071,0.59,0.215,0.859c0.314,0.592,0.929,0.962,1.598,0.962h21.75
	c0.669,0,1.283-0.37,1.598-0.962c0.144-0.27,0.214-0.565,0.214-0.859c0-0.354-0.102-0.705-0.304-1.01l-2.955-5.142h15.947
	c2.002,0,3.625-1.631,3.625-3.643V3.643C58,1.631,56.377,0,54.375,0z M50,35.991H8V8.004h42V35.991z"/>
</svg>
