<?xml version="1.0" encoding="utf-8"?>
<!-- Generator: Adobe Illustrator 16.0.0, SVG Export Plug-In . SVG Version: 6.00 Build 0)  -->
<!DOCTYPE svg PUBLIC "-//W3C//DTD SVG 1.1//EN" "http://www.w3.org/Graphics/SVG/1.1/DTD/svg11.dtd">
<svg version="1.1" id="Layer_1" xmlns="http://www.w3.org/2000/svg" xmlns:xlink="http://www.w3.org/1999/xlink" x="0px" y="0px"
	 width="48.001px" height="54.89px" viewBox="0 0 48.001 54.89" enable-background="new 0 0 48.001 54.89" xml:space="preserve">
<path fill="#FFFFFF" d="M48.001,10.286v41.175c0,1.894-1.535,3.429-3.429,3.429H3.429C1.535,54.89,0,53.354,0,51.461V10.286
	c0-1.894,1.535-3.429,3.429-3.429h3.554V3.429C6.982,1.535,8.58,0,10.474,0s3.522,1.535,3.522,3.429v3.429h5.982V3.429
	C19.978,1.535,21.576,0,23.469,0s3.522,1.535,3.522,3.429v3.429h6.982V3.429C33.974,1.535,35.572,0,37.465,0
	s3.554,1.535,3.554,3.429v3.429h3.553C46.466,6.857,48.001,8.393,48.001,10.286z M41.019,19.853H6.982v4.022h34.037V19.853z
	 M41.019,30.858H6.982v3.991h34.037V30.858z M41.019,40.863H6.982v3.991h34.037V40.863z"/>
</svg>
